<mxfile host="Electron" modified="2023-06-05T09:00:00.490Z" agent="Mozilla/5.0 (Windows NT 10.0; Win64; x64) AppleWebKit/537.36 (KHTML, like Gecko) draw.io/21.2.8 Chrome/112.0.5615.165 Electron/24.2.0 Safari/537.36" etag="jT9n6UV2bZn7-lTlojoC" version="21.2.8" type="device">
  <diagram name="페이지-1" id="6uZ--DWgTTQ_WhTJH8xB">
    <mxGraphModel dx="1195" dy="703" grid="1" gridSize="10" guides="1" tooltips="1" connect="1" arrows="1" fold="1" page="1" pageScale="1" pageWidth="827" pageHeight="1169" math="0" shadow="0">
      <root>
        <mxCell id="0" />
        <mxCell id="1" parent="0" />
        <mxCell id="-0Nem6NOxc2kG_5TnSO0-3" style="edgeStyle=orthogonalEdgeStyle;rounded=0;orthogonalLoop=1;jettySize=auto;html=1;entryX=-0.003;entryY=0.363;entryDx=0;entryDy=0;entryPerimeter=0;labelBackgroundColor=none;fontColor=default;strokeColor=#E07A5F;" edge="1" parent="1" source="-0Nem6NOxc2kG_5TnSO0-1" target="-0Nem6NOxc2kG_5TnSO0-2">
          <mxGeometry relative="1" as="geometry" />
        </mxCell>
        <mxCell id="-0Nem6NOxc2kG_5TnSO0-1" value="코딩 컨벤션" style="rounded=1;whiteSpace=wrap;html=1;labelBackgroundColor=none;fillColor=#F2CC8F;strokeColor=#E07A5F;fontColor=#393C56;" vertex="1" parent="1">
          <mxGeometry x="40" y="80" width="120" height="60" as="geometry" />
        </mxCell>
        <mxCell id="-0Nem6NOxc2kG_5TnSO0-2" value="프로그래밍 하면서 지켜야 할 규칙들이 있다.&lt;br&gt;&lt;br&gt;컴파일러가 체크해주는 규칙이 아니다.&lt;br&gt;사람과 사람 사이의 규칙을 정한 것." style="rounded=1;whiteSpace=wrap;html=1;labelBackgroundColor=none;fillColor=#F2CC8F;strokeColor=#E07A5F;fontColor=#393C56;" vertex="1" parent="1">
          <mxGeometry x="200" y="80" width="280" height="80" as="geometry" />
        </mxCell>
        <mxCell id="-0Nem6NOxc2kG_5TnSO0-4" value="헝가리안 : int iNumberValue ( 타입을 명시하는 스타일 )&lt;br&gt;카멜 케이스 : int numberValue ( 일반적으로 변수에 많이 쓰는 스타일 )&lt;br&gt;파스칼 : int NumberValue ( 일반적으로 함수에 많이 쓰는 스타일 )&lt;br&gt;스네이크 : int number_Value ( 파이썬에서 주로 쓰는 스타일 )" style="rounded=1;whiteSpace=wrap;html=1;labelBackgroundColor=none;fillColor=#F2CC8F;strokeColor=#E07A5F;fontColor=#393C56;" vertex="1" parent="1">
          <mxGeometry x="80" y="200" width="520" height="120" as="geometry" />
        </mxCell>
        <mxCell id="-0Nem6NOxc2kG_5TnSO0-5" value="중괄호 스타일" style="rounded=1;whiteSpace=wrap;html=1;labelBackgroundColor=none;fillColor=#F2CC8F;strokeColor=#E07A5F;fontColor=#393C56;" vertex="1" parent="1">
          <mxGeometry x="40" y="360" width="120" height="60" as="geometry" />
        </mxCell>
        <mxCell id="-0Nem6NOxc2kG_5TnSO0-6" value="if()&lt;br&gt;{&lt;br&gt;// 내용&lt;br&gt;}" style="rounded=1;whiteSpace=wrap;html=1;labelBackgroundColor=none;fillColor=#F2CC8F;strokeColor=#E07A5F;fontColor=#393C56;" vertex="1" parent="1">
          <mxGeometry x="200" y="360" width="120" height="60" as="geometry" />
        </mxCell>
        <mxCell id="-0Nem6NOxc2kG_5TnSO0-7" value="if(){&lt;br&gt;// 내용&lt;br&gt;}" style="rounded=1;whiteSpace=wrap;html=1;labelBackgroundColor=none;fillColor=#F2CC8F;strokeColor=#E07A5F;fontColor=#393C56;" vertex="1" parent="1">
          <mxGeometry x="360" y="360" width="120" height="60" as="geometry" />
        </mxCell>
        <mxCell id="-0Nem6NOxc2kG_5TnSO0-8" value="메모리는 어떻게 생겼는지" style="rounded=1;whiteSpace=wrap;html=1;labelBackgroundColor=none;fillColor=#F2CC8F;strokeColor=#E07A5F;fontColor=#393C56;" vertex="1" parent="1">
          <mxGeometry x="40" y="480" width="160" height="60" as="geometry" />
        </mxCell>
        <mxCell id="-0Nem6NOxc2kG_5TnSO0-44" style="edgeStyle=orthogonalEdgeStyle;rounded=0;orthogonalLoop=1;jettySize=auto;html=1;strokeColor=#E07A5F;fontColor=#393C56;fillColor=#F2CC8F;" edge="1" parent="1" source="-0Nem6NOxc2kG_5TnSO0-9" target="-0Nem6NOxc2kG_5TnSO0-13">
          <mxGeometry relative="1" as="geometry" />
        </mxCell>
        <mxCell id="-0Nem6NOxc2kG_5TnSO0-9" value="Stack" style="rounded=1;whiteSpace=wrap;html=1;labelBackgroundColor=none;fillColor=#F2CC8F;strokeColor=#E07A5F;fontColor=#393C56;" vertex="1" parent="1">
          <mxGeometry x="40" y="560" width="80" height="60" as="geometry" />
        </mxCell>
        <mxCell id="-0Nem6NOxc2kG_5TnSO0-43" style="edgeStyle=orthogonalEdgeStyle;rounded=0;orthogonalLoop=1;jettySize=auto;html=1;entryX=0;entryY=0.5;entryDx=0;entryDy=0;strokeColor=#E07A5F;fontColor=#393C56;fillColor=#F2CC8F;" edge="1" parent="1" source="-0Nem6NOxc2kG_5TnSO0-10" target="-0Nem6NOxc2kG_5TnSO0-16">
          <mxGeometry relative="1" as="geometry" />
        </mxCell>
        <mxCell id="-0Nem6NOxc2kG_5TnSO0-10" value="Heap" style="rounded=1;whiteSpace=wrap;html=1;labelBackgroundColor=none;fillColor=#F2CC8F;strokeColor=#E07A5F;fontColor=#393C56;" vertex="1" parent="1">
          <mxGeometry x="40" y="640" width="80" height="60" as="geometry" />
        </mxCell>
        <mxCell id="-0Nem6NOxc2kG_5TnSO0-42" style="edgeStyle=orthogonalEdgeStyle;rounded=0;orthogonalLoop=1;jettySize=auto;html=1;entryX=0;entryY=0.5;entryDx=0;entryDy=0;strokeColor=#E07A5F;fontColor=#393C56;fillColor=#F2CC8F;" edge="1" parent="1" source="-0Nem6NOxc2kG_5TnSO0-11" target="-0Nem6NOxc2kG_5TnSO0-17">
          <mxGeometry relative="1" as="geometry" />
        </mxCell>
        <mxCell id="-0Nem6NOxc2kG_5TnSO0-11" value="Data" style="rounded=1;whiteSpace=wrap;html=1;labelBackgroundColor=none;fillColor=#F2CC8F;strokeColor=#E07A5F;fontColor=#393C56;" vertex="1" parent="1">
          <mxGeometry x="40" y="720" width="80" height="60" as="geometry" />
        </mxCell>
        <mxCell id="-0Nem6NOxc2kG_5TnSO0-41" style="edgeStyle=orthogonalEdgeStyle;rounded=0;orthogonalLoop=1;jettySize=auto;html=1;entryX=0;entryY=0.5;entryDx=0;entryDy=0;strokeColor=#E07A5F;fontColor=#393C56;fillColor=#F2CC8F;" edge="1" parent="1" source="-0Nem6NOxc2kG_5TnSO0-12" target="-0Nem6NOxc2kG_5TnSO0-18">
          <mxGeometry relative="1" as="geometry" />
        </mxCell>
        <mxCell id="-0Nem6NOxc2kG_5TnSO0-12" value="Code" style="rounded=1;whiteSpace=wrap;html=1;labelBackgroundColor=none;fillColor=#F2CC8F;strokeColor=#E07A5F;fontColor=#393C56;" vertex="1" parent="1">
          <mxGeometry x="40" y="800" width="80" height="60" as="geometry" />
        </mxCell>
        <mxCell id="-0Nem6NOxc2kG_5TnSO0-13" value="메모리 상에서 가까운 곳에 있다. 상대적으로 조그맣다.&lt;br&gt;&amp;nbsp;그래서 빠르다." style="rounded=1;whiteSpace=wrap;html=1;align=left;labelBackgroundColor=none;fillColor=#F2CC8F;strokeColor=#E07A5F;fontColor=#393C56;" vertex="1" parent="1">
          <mxGeometry x="160" y="560" width="320" height="60" as="geometry" />
        </mxCell>
        <mxCell id="-0Nem6NOxc2kG_5TnSO0-14" value="Stack -&amp;gt; 뭔가를 저장했음 . a" style="rounded=1;whiteSpace=wrap;html=1;labelBackgroundColor=none;fillColor=#F2CC8F;strokeColor=#E07A5F;fontColor=#393C56;" vertex="1" parent="1">
          <mxGeometry x="520" y="560" width="280" height="60" as="geometry" />
        </mxCell>
        <mxCell id="-0Nem6NOxc2kG_5TnSO0-15" value="Heap -&amp;gt; 뭔가를 저장했음. b" style="rounded=1;whiteSpace=wrap;html=1;labelBackgroundColor=none;fillColor=#F2CC8F;strokeColor=#E07A5F;fontColor=#393C56;" vertex="1" parent="1">
          <mxGeometry x="520" y="640" width="280" height="220" as="geometry" />
        </mxCell>
        <mxCell id="-0Nem6NOxc2kG_5TnSO0-16" value="메모리 상에서 먼 곳에 있다. 상대적으로 크다.&lt;br&gt;그래서 느리다." style="rounded=1;whiteSpace=wrap;html=1;align=left;labelBackgroundColor=none;fillColor=#F2CC8F;strokeColor=#E07A5F;fontColor=#393C56;" vertex="1" parent="1">
          <mxGeometry x="160" y="640" width="320" height="60" as="geometry" />
        </mxCell>
        <mxCell id="-0Nem6NOxc2kG_5TnSO0-17" value="전역 변수가 저장되는 곳." style="rounded=1;whiteSpace=wrap;html=1;align=left;labelBackgroundColor=none;fillColor=#F2CC8F;strokeColor=#E07A5F;fontColor=#393C56;" vertex="1" parent="1">
          <mxGeometry x="160" y="720" width="320" height="60" as="geometry" />
        </mxCell>
        <mxCell id="-0Nem6NOxc2kG_5TnSO0-18" value="소스 코드가 메모리에 올라가서 저장되는 곳." style="rounded=1;whiteSpace=wrap;html=1;align=left;labelBackgroundColor=none;fillColor=#F2CC8F;strokeColor=#E07A5F;fontColor=#393C56;" vertex="1" parent="1">
          <mxGeometry x="160" y="800" width="320" height="60" as="geometry" />
        </mxCell>
        <mxCell id="-0Nem6NOxc2kG_5TnSO0-19" value="Stack 이 어떻게 생겼는지?" style="rounded=1;whiteSpace=wrap;html=1;labelBackgroundColor=none;fillColor=#F2CC8F;strokeColor=#E07A5F;fontColor=#393C56;" vertex="1" parent="1">
          <mxGeometry x="1000" y="380" width="400" height="60" as="geometry" />
        </mxCell>
        <mxCell id="-0Nem6NOxc2kG_5TnSO0-20" value="" style="rounded=1;whiteSpace=wrap;html=1;labelBackgroundColor=none;fillColor=#F2CC8F;strokeColor=#E07A5F;fontColor=#393C56;" vertex="1" parent="1">
          <mxGeometry x="1090" y="570" width="180" height="420" as="geometry" />
        </mxCell>
        <mxCell id="-0Nem6NOxc2kG_5TnSO0-21" value="입구" style="rounded=1;whiteSpace=wrap;html=1;labelBackgroundColor=none;fillColor=#F2CC8F;strokeColor=#E07A5F;fontColor=#393C56;" vertex="1" parent="1">
          <mxGeometry x="1080" y="460" width="80" height="60" as="geometry" />
        </mxCell>
        <mxCell id="-0Nem6NOxc2kG_5TnSO0-22" value="출구" style="rounded=1;whiteSpace=wrap;html=1;labelBackgroundColor=none;fillColor=#F2CC8F;strokeColor=#E07A5F;fontColor=#393C56;" vertex="1" parent="1">
          <mxGeometry x="1180" y="460" width="80" height="60" as="geometry" />
        </mxCell>
        <mxCell id="-0Nem6NOxc2kG_5TnSO0-23" value="" style="endArrow=classic;html=1;rounded=0;exitX=0.5;exitY=1;exitDx=0;exitDy=0;entryX=0.5;entryY=0;entryDx=0;entryDy=0;labelBackgroundColor=none;fontColor=default;strokeColor=#E07A5F;" edge="1" parent="1" source="-0Nem6NOxc2kG_5TnSO0-21" target="-0Nem6NOxc2kG_5TnSO0-20">
          <mxGeometry width="50" height="50" relative="1" as="geometry">
            <mxPoint x="1030" y="720" as="sourcePoint" />
            <mxPoint x="1080" y="670" as="targetPoint" />
          </mxGeometry>
        </mxCell>
        <mxCell id="-0Nem6NOxc2kG_5TnSO0-24" value="" style="endArrow=classic;html=1;rounded=0;exitX=0.5;exitY=0;exitDx=0;exitDy=0;entryX=0.5;entryY=1;entryDx=0;entryDy=0;labelBackgroundColor=none;fontColor=default;strokeColor=#E07A5F;" edge="1" parent="1" source="-0Nem6NOxc2kG_5TnSO0-20" target="-0Nem6NOxc2kG_5TnSO0-22">
          <mxGeometry width="50" height="50" relative="1" as="geometry">
            <mxPoint x="1130" y="530" as="sourcePoint" />
            <mxPoint x="1175" y="570" as="targetPoint" />
          </mxGeometry>
        </mxCell>
        <mxCell id="-0Nem6NOxc2kG_5TnSO0-25" value="Description001 함수 부른&lt;br&gt;자리를 저장해 둠." style="rounded=1;whiteSpace=wrap;html=1;labelBackgroundColor=none;fillColor=#F2CC8F;strokeColor=#E07A5F;fontColor=#393C56;" vertex="1" parent="1">
          <mxGeometry x="1110" y="840" width="140" height="60" as="geometry" />
        </mxCell>
        <mxCell id="-0Nem6NOxc2kG_5TnSO0-26" value="Description001 함수 불렀다." style="rounded=1;whiteSpace=wrap;html=1;labelBackgroundColor=none;fillColor=#F2CC8F;strokeColor=#E07A5F;fontColor=#393C56;" vertex="1" parent="1">
          <mxGeometry x="1110" y="920" width="140" height="60" as="geometry" />
        </mxCell>
        <mxCell id="-0Nem6NOxc2kG_5TnSO0-31" value="" style="group;labelBackgroundColor=none;fontColor=#393C56;" vertex="1" connectable="0" parent="1">
          <mxGeometry x="1110" y="660" width="140" height="170" as="geometry" />
        </mxCell>
        <mxCell id="-0Nem6NOxc2kG_5TnSO0-30" value="함수 열었음." style="rounded=1;whiteSpace=wrap;html=1;labelBackgroundColor=none;fillColor=#F2CC8F;strokeColor=#E07A5F;fontColor=#393C56;" vertex="1" parent="-0Nem6NOxc2kG_5TnSO0-31">
          <mxGeometry width="140" height="170" as="geometry" />
        </mxCell>
        <mxCell id="-0Nem6NOxc2kG_5TnSO0-27" value="int number 자리 만듬.&lt;br&gt;4byte" style="rounded=1;whiteSpace=wrap;html=1;align=left;labelBackgroundColor=none;fillColor=#F2CC8F;strokeColor=#E07A5F;fontColor=#393C56;" vertex="1" parent="-0Nem6NOxc2kG_5TnSO0-31">
          <mxGeometry y="100" width="140" height="60" as="geometry" />
        </mxCell>
        <mxCell id="-0Nem6NOxc2kG_5TnSO0-28" value="함수 끝나면" style="rounded=1;whiteSpace=wrap;html=1;align=left;labelBackgroundColor=none;fillColor=#F2CC8F;strokeColor=#E07A5F;fontColor=#393C56;" vertex="1" parent="-0Nem6NOxc2kG_5TnSO0-31">
          <mxGeometry y="10" width="140" height="60" as="geometry" />
        </mxCell>
        <mxCell id="-0Nem6NOxc2kG_5TnSO0-32" value="Descritpion001 함수 부른 자리로 찾아가라.&amp;nbsp;" style="rounded=1;whiteSpace=wrap;html=1;labelBackgroundColor=none;fillColor=#F2CC8F;strokeColor=#E07A5F;fontColor=#393C56;" vertex="1" parent="1">
          <mxGeometry x="1110" y="585" width="140" height="60" as="geometry" />
        </mxCell>
        <mxCell id="-0Nem6NOxc2kG_5TnSO0-33" value="" style="endArrow=classic;html=1;rounded=0;exitX=1.017;exitY=0.106;exitDx=0;exitDy=0;entryX=1.002;entryY=0.733;entryDx=0;entryDy=0;exitPerimeter=0;entryPerimeter=0;labelBackgroundColor=none;fontColor=default;strokeColor=#E07A5F;" edge="1" parent="1" source="-0Nem6NOxc2kG_5TnSO0-20" target="-0Nem6NOxc2kG_5TnSO0-20">
          <mxGeometry width="50" height="50" relative="1" as="geometry">
            <mxPoint x="1370" y="635" as="sourcePoint" />
            <mxPoint x="1410" y="585" as="targetPoint" />
            <Array as="points">
              <mxPoint x="1400" y="615" />
              <mxPoint x="1400" y="880" />
            </Array>
          </mxGeometry>
        </mxCell>
        <mxCell id="-0Nem6NOxc2kG_5TnSO0-38" style="edgeStyle=orthogonalEdgeStyle;rounded=0;orthogonalLoop=1;jettySize=auto;html=1;entryX=0;entryY=0.5;entryDx=0;entryDy=0;labelBackgroundColor=none;fontColor=default;strokeColor=#E07A5F;" edge="1" parent="1" source="-0Nem6NOxc2kG_5TnSO0-34" target="-0Nem6NOxc2kG_5TnSO0-36">
          <mxGeometry relative="1" as="geometry" />
        </mxCell>
        <mxCell id="-0Nem6NOxc2kG_5TnSO0-34" value="바이너리 파일" style="rounded=1;whiteSpace=wrap;html=1;labelBackgroundColor=none;fillColor=#F2CC8F;strokeColor=#E07A5F;fontColor=#393C56;" vertex="1" parent="1">
          <mxGeometry x="40" y="920" width="100" height="60" as="geometry" />
        </mxCell>
        <mxCell id="-0Nem6NOxc2kG_5TnSO0-39" style="edgeStyle=orthogonalEdgeStyle;rounded=0;orthogonalLoop=1;jettySize=auto;html=1;entryX=0;entryY=0.5;entryDx=0;entryDy=0;labelBackgroundColor=none;fontColor=default;strokeColor=#E07A5F;" edge="1" parent="1" source="-0Nem6NOxc2kG_5TnSO0-35" target="-0Nem6NOxc2kG_5TnSO0-37">
          <mxGeometry relative="1" as="geometry" />
        </mxCell>
        <mxCell id="-0Nem6NOxc2kG_5TnSO0-35" value="텍스트 파일" style="rounded=1;whiteSpace=wrap;html=1;labelBackgroundColor=none;fillColor=#F2CC8F;strokeColor=#E07A5F;fontColor=#393C56;" vertex="1" parent="1">
          <mxGeometry x="40" y="1000" width="100" height="60" as="geometry" />
        </mxCell>
        <mxCell id="-0Nem6NOxc2kG_5TnSO0-36" value="실행가능한 파일을 말하는 것." style="rounded=1;whiteSpace=wrap;html=1;labelBackgroundColor=none;fillColor=#F2CC8F;strokeColor=#E07A5F;fontColor=#393C56;" vertex="1" parent="1">
          <mxGeometry x="160" y="920" width="200" height="60" as="geometry" />
        </mxCell>
        <mxCell id="-0Nem6NOxc2kG_5TnSO0-37" value="메모장으로 열리는 다른 모든 파일." style="rounded=1;whiteSpace=wrap;html=1;labelBackgroundColor=none;fillColor=#F2CC8F;strokeColor=#E07A5F;fontColor=#393C56;" vertex="1" parent="1">
          <mxGeometry x="160" y="1000" width="200" height="60" as="geometry" />
        </mxCell>
        <mxCell id="-0Nem6NOxc2kG_5TnSO0-48" style="edgeStyle=orthogonalEdgeStyle;rounded=0;orthogonalLoop=1;jettySize=auto;html=1;entryX=0.5;entryY=0;entryDx=0;entryDy=0;strokeColor=#E07A5F;fontColor=#393C56;fillColor=#F2CC8F;" edge="1" parent="1" source="-0Nem6NOxc2kG_5TnSO0-45" target="-0Nem6NOxc2kG_5TnSO0-46">
          <mxGeometry relative="1" as="geometry" />
        </mxCell>
        <mxCell id="-0Nem6NOxc2kG_5TnSO0-45" value="Type casting&lt;br&gt;(형변환)" style="rounded=1;whiteSpace=wrap;html=1;labelBackgroundColor=none;fillColor=#F2CC8F;strokeColor=#E07A5F;fontColor=#393C56;align=left;" vertex="1" parent="1">
          <mxGeometry x="70" y="1120" width="100" height="60" as="geometry" />
        </mxCell>
        <mxCell id="-0Nem6NOxc2kG_5TnSO0-49" style="edgeStyle=orthogonalEdgeStyle;rounded=0;orthogonalLoop=1;jettySize=auto;html=1;entryX=0.5;entryY=0;entryDx=0;entryDy=0;strokeColor=#E07A5F;fontColor=#393C56;fillColor=#F2CC8F;" edge="1" parent="1" source="-0Nem6NOxc2kG_5TnSO0-46" target="-0Nem6NOxc2kG_5TnSO0-47">
          <mxGeometry relative="1" as="geometry" />
        </mxCell>
        <mxCell id="-0Nem6NOxc2kG_5TnSO0-46" value="자료형을 강제로 &lt;br&gt;변환하는 기능&lt;br&gt;&lt;br&gt;값의 손실이 일어날 수 있다." style="rounded=1;whiteSpace=wrap;html=1;labelBackgroundColor=none;fillColor=#F2CC8F;strokeColor=#E07A5F;fontColor=#393C56;align=left;" vertex="1" parent="1">
          <mxGeometry x="40" y="1210" width="160" height="70" as="geometry" />
        </mxCell>
        <mxCell id="-0Nem6NOxc2kG_5TnSO0-47" value="char cahr_ = &#39;A&#39;&lt;br&gt;int int_ = char_;" style="rounded=1;whiteSpace=wrap;html=1;labelBackgroundColor=none;fillColor=#F2CC8F;strokeColor=#E07A5F;fontColor=#393C56;align=left;" vertex="1" parent="1">
          <mxGeometry x="70" y="1320" width="100" height="60" as="geometry" />
        </mxCell>
        <mxCell id="-0Nem6NOxc2kG_5TnSO0-50" value="배열" style="rounded=1;whiteSpace=wrap;html=1;labelBackgroundColor=none;fillColor=#F2CC8F;strokeColor=#E07A5F;fontColor=#393C56;align=left;" vertex="1" parent="1">
          <mxGeometry x="300" y="1120" width="100" height="60" as="geometry" />
        </mxCell>
        <mxCell id="-0Nem6NOxc2kG_5TnSO0-51" value="배열은 둘 이상의 변수를 연속적으로 &lt;br&gt;모아놓은 것.&lt;br&gt;&lt;br&gt;다수의 데이터를 저장하고 처리하는 경우에 사용한다.&lt;br&gt;&lt;br&gt;" style="rounded=1;whiteSpace=wrap;html=1;labelBackgroundColor=none;fillColor=#F2CC8F;strokeColor=#E07A5F;fontColor=#393C56;align=left;" vertex="1" parent="1">
          <mxGeometry x="300" y="1210" width="290" height="90" as="geometry" />
        </mxCell>
        <mxCell id="-0Nem6NOxc2kG_5TnSO0-54" style="edgeStyle=orthogonalEdgeStyle;rounded=0;orthogonalLoop=1;jettySize=auto;html=1;entryX=0.5;entryY=0;entryDx=0;entryDy=0;strokeColor=#E07A5F;fontColor=#393C56;fillColor=#F2CC8F;" edge="1" parent="1" source="-0Nem6NOxc2kG_5TnSO0-52" target="-0Nem6NOxc2kG_5TnSO0-53">
          <mxGeometry relative="1" as="geometry" />
        </mxCell>
        <mxCell id="-0Nem6NOxc2kG_5TnSO0-52" value="배열이 어떻게 생겼나?" style="rounded=1;whiteSpace=wrap;html=1;labelBackgroundColor=none;fillColor=#F2CC8F;strokeColor=#E07A5F;fontColor=#393C56;align=left;" vertex="1" parent="1">
          <mxGeometry x="300" y="1320" width="170" height="60" as="geometry" />
        </mxCell>
        <mxCell id="-0Nem6NOxc2kG_5TnSO0-53" value="int numbers[5];&lt;span style=&quot;white-space: pre;&quot;&gt;	&lt;/span&gt;&lt;span style=&quot;white-space: pre;&quot;&gt;	&lt;/span&gt;//선언&lt;br&gt;&lt;br&gt;" style="rounded=1;whiteSpace=wrap;html=1;labelBackgroundColor=none;fillColor=#F2CC8F;strokeColor=#E07A5F;fontColor=#393C56;align=left;" vertex="1" parent="1">
          <mxGeometry x="300" y="1420" width="170" height="60" as="geometry" />
        </mxCell>
        <mxCell id="-0Nem6NOxc2kG_5TnSO0-57" style="edgeStyle=orthogonalEdgeStyle;rounded=0;orthogonalLoop=1;jettySize=auto;html=1;entryX=0.5;entryY=0;entryDx=0;entryDy=0;strokeColor=#E07A5F;fontColor=#393C56;fillColor=#F2CC8F;" edge="1" parent="1" source="-0Nem6NOxc2kG_5TnSO0-55" target="-0Nem6NOxc2kG_5TnSO0-56">
          <mxGeometry relative="1" as="geometry" />
        </mxCell>
        <mxCell id="-0Nem6NOxc2kG_5TnSO0-55" value="배열은 index(첨자)로 접근 가능하다." style="rounded=1;whiteSpace=wrap;html=1;labelBackgroundColor=none;fillColor=#F2CC8F;strokeColor=#E07A5F;fontColor=#393C56;align=left;" vertex="1" parent="1">
          <mxGeometry x="520" y="1320" width="200" height="60" as="geometry" />
        </mxCell>
        <mxCell id="-0Nem6NOxc2kG_5TnSO0-56" value="배열의 첫번째 요소에 접근하는 방법&lt;br&gt;&lt;br&gt;numbers[0]&lt;span style=&quot;white-space: pre;&quot;&gt;	&lt;/span&gt;// 이렇게 접근한다." style="rounded=1;whiteSpace=wrap;html=1;labelBackgroundColor=none;fillColor=#F2CC8F;strokeColor=#E07A5F;fontColor=#393C56;align=left;" vertex="1" parent="1">
          <mxGeometry x="520" y="1420" width="200" height="60" as="geometry" />
        </mxCell>
        <mxCell id="-0Nem6NOxc2kG_5TnSO0-64" value="" style="group" vertex="1" connectable="0" parent="1">
          <mxGeometry x="870" y="1290" width="640" height="310" as="geometry" />
        </mxCell>
        <mxCell id="-0Nem6NOxc2kG_5TnSO0-58" value="" style="rounded=1;whiteSpace=wrap;html=1;labelBackgroundColor=none;fillColor=#F2CC8F;strokeColor=#E07A5F;fontColor=#393C56;align=left;" vertex="1" parent="-0Nem6NOxc2kG_5TnSO0-64">
          <mxGeometry width="640" height="310" as="geometry" />
        </mxCell>
        <mxCell id="-0Nem6NOxc2kG_5TnSO0-59" value="int number1;" style="ellipse;whiteSpace=wrap;html=1;strokeColor=#E07A5F;fontColor=#393C56;fillColor=#F2CC8F;" vertex="1" parent="-0Nem6NOxc2kG_5TnSO0-64">
          <mxGeometry x="40" y="25" width="120" height="65" as="geometry" />
        </mxCell>
        <mxCell id="-0Nem6NOxc2kG_5TnSO0-60" value="int number2;" style="ellipse;whiteSpace=wrap;html=1;strokeColor=#E07A5F;fontColor=#393C56;fillColor=#F2CC8F;" vertex="1" parent="-0Nem6NOxc2kG_5TnSO0-64">
          <mxGeometry x="210" y="20" width="120" height="65" as="geometry" />
        </mxCell>
        <mxCell id="-0Nem6NOxc2kG_5TnSO0-61" value="int number3;" style="ellipse;whiteSpace=wrap;html=1;strokeColor=#E07A5F;fontColor=#393C56;fillColor=#F2CC8F;" vertex="1" parent="-0Nem6NOxc2kG_5TnSO0-64">
          <mxGeometry x="100" y="140" width="120" height="65" as="geometry" />
        </mxCell>
        <mxCell id="-0Nem6NOxc2kG_5TnSO0-62" value="int number4;" style="ellipse;whiteSpace=wrap;html=1;strokeColor=#E07A5F;fontColor=#393C56;fillColor=#F2CC8F;" vertex="1" parent="-0Nem6NOxc2kG_5TnSO0-64">
          <mxGeometry x="470" y="122.5" width="120" height="65" as="geometry" />
        </mxCell>
        <mxCell id="-0Nem6NOxc2kG_5TnSO0-63" value="int number5;" style="ellipse;whiteSpace=wrap;html=1;strokeColor=#E07A5F;fontColor=#393C56;fillColor=#F2CC8F;" vertex="1" parent="-0Nem6NOxc2kG_5TnSO0-64">
          <mxGeometry x="341" y="230" width="120" height="65" as="geometry" />
        </mxCell>
        <mxCell id="-0Nem6NOxc2kG_5TnSO0-65" value="Stack 에서 연속 변수 생성시 = 무작위한 위치에 메모리를 할당받아 각 변수 사이에 남는 공간이 낭비된다." style="rounded=1;whiteSpace=wrap;html=1;strokeColor=#E07A5F;fontColor=#393C56;fillColor=#F2CC8F;" vertex="1" parent="1">
          <mxGeometry x="880" y="1190" width="610" height="60" as="geometry" />
        </mxCell>
        <mxCell id="-0Nem6NOxc2kG_5TnSO0-66" value="" style="group" vertex="1" connectable="0" parent="1">
          <mxGeometry x="880" y="1730" width="640" height="310" as="geometry" />
        </mxCell>
        <mxCell id="-0Nem6NOxc2kG_5TnSO0-67" value="" style="rounded=1;whiteSpace=wrap;html=1;labelBackgroundColor=none;fillColor=#F2CC8F;strokeColor=#E07A5F;fontColor=#393C56;align=left;" vertex="1" parent="-0Nem6NOxc2kG_5TnSO0-66">
          <mxGeometry width="640" height="310" as="geometry" />
        </mxCell>
        <mxCell id="-0Nem6NOxc2kG_5TnSO0-73" value="" style="rounded=0;whiteSpace=wrap;html=1;strokeColor=#E07A5F;fontColor=#393C56;fillColor=#F2CC8F;" vertex="1" parent="-0Nem6NOxc2kG_5TnSO0-66">
          <mxGeometry x="40" y="80" width="320" height="60" as="geometry" />
        </mxCell>
        <mxCell id="-0Nem6NOxc2kG_5TnSO0-75" value="" style="endArrow=none;html=1;rounded=0;strokeColor=#E07A5F;fontColor=#393C56;fillColor=#F2CC8F;" edge="1" parent="-0Nem6NOxc2kG_5TnSO0-66">
          <mxGeometry width="50" height="50" relative="1" as="geometry">
            <mxPoint x="99.58" y="80" as="sourcePoint" />
            <mxPoint x="99.58" y="140" as="targetPoint" />
            <Array as="points">
              <mxPoint x="99.58" y="120" />
            </Array>
          </mxGeometry>
        </mxCell>
        <mxCell id="-0Nem6NOxc2kG_5TnSO0-76" value="" style="endArrow=none;html=1;rounded=0;strokeColor=#E07A5F;fontColor=#393C56;fillColor=#F2CC8F;exitX=0.113;exitY=0.006;exitDx=0;exitDy=0;exitPerimeter=0;entryX=0.113;entryY=1.033;entryDx=0;entryDy=0;entryPerimeter=0;" edge="1" parent="-0Nem6NOxc2kG_5TnSO0-66">
          <mxGeometry width="50" height="50" relative="1" as="geometry">
            <mxPoint x="170" y="80" as="sourcePoint" />
            <mxPoint x="170" y="142" as="targetPoint" />
          </mxGeometry>
        </mxCell>
        <mxCell id="-0Nem6NOxc2kG_5TnSO0-77" value="" style="endArrow=none;html=1;rounded=0;strokeColor=#E07A5F;fontColor=#393C56;fillColor=#F2CC8F;exitX=0.113;exitY=0.006;exitDx=0;exitDy=0;exitPerimeter=0;entryX=0.113;entryY=1.033;entryDx=0;entryDy=0;entryPerimeter=0;" edge="1" parent="-0Nem6NOxc2kG_5TnSO0-66">
          <mxGeometry width="50" height="50" relative="1" as="geometry">
            <mxPoint x="230" y="80" as="sourcePoint" />
            <mxPoint x="230" y="142" as="targetPoint" />
          </mxGeometry>
        </mxCell>
        <mxCell id="-0Nem6NOxc2kG_5TnSO0-78" value="" style="endArrow=none;html=1;rounded=0;strokeColor=#E07A5F;fontColor=#393C56;fillColor=#F2CC8F;exitX=0.113;exitY=0.006;exitDx=0;exitDy=0;exitPerimeter=0;entryX=0.113;entryY=1.033;entryDx=0;entryDy=0;entryPerimeter=0;" edge="1" parent="-0Nem6NOxc2kG_5TnSO0-66">
          <mxGeometry width="50" height="50" relative="1" as="geometry">
            <mxPoint x="294.5799999999999" y="80" as="sourcePoint" />
            <mxPoint x="294.5799999999999" y="142" as="targetPoint" />
          </mxGeometry>
        </mxCell>
        <mxCell id="-0Nem6NOxc2kG_5TnSO0-79" value="" style="endArrow=none;html=1;rounded=0;strokeColor=#E07A5F;fontColor=#393C56;fillColor=#F2CC8F;exitX=0.113;exitY=0.006;exitDx=0;exitDy=0;exitPerimeter=0;entryX=0.113;entryY=1.033;entryDx=0;entryDy=0;entryPerimeter=0;" edge="1" parent="-0Nem6NOxc2kG_5TnSO0-66">
          <mxGeometry width="50" height="50" relative="1" as="geometry">
            <mxPoint x="360" y="80" as="sourcePoint" />
            <mxPoint x="360" y="142" as="targetPoint" />
          </mxGeometry>
        </mxCell>
        <mxCell id="-0Nem6NOxc2kG_5TnSO0-80" value="int numbers[5];" style="rounded=1;whiteSpace=wrap;html=1;strokeColor=#E07A5F;fontColor=#393C56;fillColor=#F2CC8F;" vertex="1" parent="-0Nem6NOxc2kG_5TnSO0-66">
          <mxGeometry x="40" y="30" width="120" height="40" as="geometry" />
        </mxCell>
        <mxCell id="-0Nem6NOxc2kG_5TnSO0-81" value="Stack 에서 연속 변수를 배열로 생성시 = 동일한 크기의 메모리를 입력받은 배열값만큼 할당해준다&lt;br&gt;= 최적화 진행 가능&amp;nbsp; &amp;nbsp;" style="rounded=1;whiteSpace=wrap;html=1;strokeColor=#E07A5F;fontColor=#393C56;fillColor=#F2CC8F;" vertex="1" parent="1">
          <mxGeometry x="875" y="1640" width="610" height="60" as="geometry" />
        </mxCell>
      </root>
    </mxGraphModel>
  </diagram>
</mxfile>
